The Vikings       
 
 
  Verenigde Staten
Actie / Avontuur
114 minuten

geregisseerd door Richard Fleischer
met Kirk Douglas, Ernest Borgnine en Tony Curtis

Ragnar (Ernest Borgnine) leidt met grote regelmaat bloeddorstige Vikingen naar de Engelse kust. Hij verwekt een kind bij de koningin. Eric (Tony Curtis) is de zoon die hieruit voortkomt, hij komt oog in oog te staan met Einar (Kirk Douglas) de opvolger van Ragnar.


English

Einar and Eric are two Viking half-brothers. The former is a great warrior whilst the other is an ex-slave, but neither knows the true identity of the other. When the throne of Northumbria in Britain becomes free for the taking, the two brothers compete against one another for the prize, but they have very different motives - both involving the princess Morgana, however.

Categorie : Beeld 
Formaat : DVD5 
Bron : Retail
 
Ondertitels : Nederlands (instelbaar)
 
Genre : Actie
Avontuur
Format                           : MPEG-PS
File size                        : 1 024 MiB
Duration                         : 30mn 53s
Overall bit rate                 : 4 635 Kbps

Video
ID                               : 224 (0xE0)
Format                           : MPEG Video
Format version                   : Version 2
Format profile                   : Main@Main
Format settings, Matrix          : Default
Duration                         : 30mn 53s
Bit rate mode                    : Variable
Bit rate                         : 4 259 Kbps
Nominal bit rate                 : 8 500 Kbps
Width                            : 720 pixels
Height                           : 576 pixels
Display aspect ratio             : 2.35
Frame rate                       : 25.000 fps
Standard                         : PAL
Colorimetry                      : 4:2:0
Scan type                        : Interlaced
Scan order                       : Top Field First
Bits/(Pixel*Frame)               : 0.411
Stream size                      : 941 MiB (92%)

Audio
ID                               : 130 (0x82)
Format                           : AC-3
Format/Info                      : Audio Coding 3
Duration                         : 30mn 52s
Bit rate mode                    : Constant
Bit rate                         : 192 Kbps
Channel(s)                       : 2 channels
Channel positions                : L R
Sampling rate                    : 48.0 KHz
Stream size                      : 42.4 MiB (4%)

Menu
Format                           : DVD-Video
 
Weblink :  http://www.moviemeter.nl/film/8253 
Weblink :  http://www.imdb.com/title/tt0052365

*****************************************

Brought to you by 
2Lions Team

meer zien??
Kom dan eens kijken op ons forum 


2Lions the site to be for all your Dutch MOVIES and more

******************************************


DON T HIT AND RUN Niet gelijk afhaken als de FILM binnen is blijf seeden. 

Don`t quit after you finished the download, but keep seeding


There are fake torrents from uploaders who use our team name.
Those are not ours, or members from our team.
We 2Lions-Team are not responsible for the fake posts on our name

Wij 2Lions-Team zijn niet verantwoordelijk voor die zieke FAKE posten die op onze naam worden gedaan

Please check our site !!!
To the fakers Get a Live
